{"title":"Paranormal Activity 2 2010 Cam XviD Feel-Free ","uid":5909137,"size":624716823,"categoryP":"video","categoryS":"movies","magnet":"?xt=urn:btih:b9b207ce9d022ed4d44dfd41f4d5b97484b88d64&amp;dn=Paranormal+Activity+2+2010+Cam+XviD+Feel-Free+&amp;tr=udp%3A%2F%2Ftracker.openbittorrent.com%3A80&amp;tr=udp%3A%2F%2Fopen.demonii.com%3A1337&amp;tr=udp%3A%2F%2Ftracker.coppersurfer.tk%3A6969&amp;tr=udp%3A%2F%2Fexodus.desync.com%3A6969","seeders":1,"leechers":0,"uploader":"deffjam555","files":9,"time":1287990978,"description":"cover &lt;a href=&quot;\nhttp://static.cinemarx.ro/poze/filme-mari/2010/09/Paranormal_Activity_2_1284811474_2010.jpg&quot; rel=&quot;nofollow&quot; target=&quot;_NEW&quot;&gt;\nhttp://static.cinemarx.ro/poze/filme-mari/2010/09/Paranormal_Activity_2_1284811474_2010.jpg&lt;/a&gt;\n\nscreens\n &lt;a href=&quot;\nhttp://img268.imageshack.us/img268/4530/paranormalactivity22010.jpg&quot; rel=&quot;nofollow&quot; target=&quot;_NEW&quot;&gt;\nhttp://img268.imageshack.us/img268/4530/paranormalactivity22010.jpg&lt;/a&gt;\n &lt;a href=&quot;\nhttp://img31.imageshack.us/img31/1291/paranormalactivity22010u.jpg&quot; rel=&quot;nofollow&quot; target=&quot;_NEW&quot;&gt;\nhttp://img31.imageshack.us/img31/1291/paranormalactivity22010u.jpg&lt;/a&gt;\n &lt;a href=&quot;\nhttp://img541.imageshack.us/img541/4530/paranormalactivity22010.jpg&quot; rel=&quot;nofollow&quot; target=&quot;_NEW&quot;&gt;\nhttp://img541.imageshack.us/img541/4530/paranormalactivity22010.jpg&lt;/a&gt;\n &lt;a href=&quot;\nhttp://img143.imageshack.us/img143/4530/paranormalactivity22010.jpg&quot; rel=&quot;nofollow&quot; target=&quot;_NEW&quot;&gt;\nhttp://img143.imageshack.us/img143/4530/paranormalactivity22010.jpg&lt;/a&gt;\n\nGenre:Horror\nLanguage:English\nIMDb:http://www.imdb.com/title/tt1536044/\nSource:Classified/Cam rip rus.Thx\n\nGeneral\nComplete name :Paranormal Activity 2 2010 Cam XviD Feel-Free\nFormat : AVI\nFormat/Info : Audio Video Interleave\nFile size : 596 MiB\nDuration : 1h 22mn\nOverall bit rate : 1 012 Kbps\nWriting library : VirtualDub build 32817/release\nVideo #0\nID : 0\nFormat : MPEG-4 Visual\nFormat profile : AdvancedSimple@L5\nFormat settings, BVOP : Yes\nFormat settings, QPel : No\nFormat settings, GMC : No warppoints\nFormat settings, Matrix : Default (H.263)\nMuxing mode : Packed bitstream\nCodec ID : XVID\nCodec ID/Hint : XviD\nDuration : 1h 22mn\nBit rate : 872 Kbps\nWidth : 652 pixels\nHeight : 352 pixels\nDisplay aspect ratio : 1.852\nFrame rate : 23.976 fps\nResolution : 24 bits\nColorimetry : 4:2:0\nScan type : Progressive\nBits/(Pixel*Frame) : 0.159\nStream size : 513 MiB (86%)\nWriting library : XviD 1.2.1 (UTC 2008-12-04)\nAudio #1\nID : 1\nFormat : MPEG Audio\nFormat version : Version 1\nFormat profile : Layer 3\nCodec ID : 55\nCodec ID/Hint : MP3\nDuration : 1h 22mn\nBit rate mode : Constant\nBit rate : 128 Kbps\nChannel(s) : 2 channels\nSampling rate : 44.1 KHz\nResolution : 16 bits\nStream size : 75.3 MiB (13%)\nAlignment : Aligned on interleaves\nInterleave, duration : 26 ms (0.63 video frame)\nInterleave, preload duration : 522 ms\n\n\nPlot:\nAfter experiencing what they think are a series of &quot;break-ins&quot;, a family sets up security cameras around their home, only to realize that the events unfolding before them are more sinister than they seem.\n","torrent":{"xt":"urn:btih:b9b207ce9d022ed4d44dfd41f4d5b97484b88d64","amp;dn":"Paranormal+Activity+2+2010+Cam+XviD+Feel-Free+","amp;tr":["udp%3A%2F%2Ftracker.openbittorrent.com%3A80","udp%3A%2F%2Fopen.demonii.com%3A1337","udp%3A%2F%2Ftracker.coppersurfer.tk%3A6969","udp%3A%2F%2Fexodus.desync.com%3A6969"],"infoHash":"b9b207ce9d022ed4d44dfd41f4d5b97484b88d64","infoHashBuffer":{"type":"Buffer","data":[185,178,7,206,157,2,46,212,212,77,253,65,244,213,185,116,132,184,141,100]},"announce":[],"urlList":[]}}